# xmcd
#
# Track frame offsets: 
#        150
#        22433
#        35586
#        50437
#        64100
#        75764
#        88708
#        103102
#        125764
#        141608
#        154709
#        165968
#
# Disc length: 2421 seconds
#
# Revision: 0
# Processed by: cddbd v1.4PL0 Copyright (c) Steve Scherf et al.
# Submitted via: ExactAudioCopy v0.95a3
#
DISCID=a009730c
DTITLE=Ron Baker - Homecoming
DYEAR=2001
DGENRE=Country
TTITLE0=Homecoming
TTITLE1=More
TTITLE2=You Needed Me
TTITLE3=The Girl from Ipanema
TTITLE4=Venus
TTITLE5=That's All
TTITLE6=40 Miles of Bad Road
TTITLE7=Latin Quarter
TTITLE8=On the Case
TTITLE9=The More I See You
TTITLE10=Young Thing
TTITLE11=Everywhere
EXTD=
EXTT0=
EXTT1=
EXTT2=
EXTT3=
EXTT4=
EXTT5=
EXTT6=
EXTT7=
EXTT8=
EXTT9=
EXTT10=
EXTT11=
PLAYORDER=
